<svg xmlns="http://www.w3.org/2000/svg" xmlns:xlink="http://www.w3.org/1999/xlink" width="500" zoomAndPan="magnify" viewBox="0 0 375 374.999991" height="500" preserveAspectRatio="xMidYMid meet" version="1.0"><defs><g/><clipPath id="e723a3cc6d"><path d="M 70.484375 206.730469 L 310.425781 206.730469 L 310.425781 216.761719 L 70.484375 216.761719 Z M 70.484375 206.730469 " clip-rule="nonzero"/></clipPath><clipPath id="829d30337f"><path d="M 70.484375 206.730469 L 72.65625 216.761719 L 310.425781 207.273438 L 310.289062 206.730469 Z M 70.484375 206.730469 " clip-rule="nonzero"/></clipPath></defs><g fill="#f2f2f2" fill-opacity="1"><g transform="translate(70.547436, 197.639855)"><g><path d="M 18.640625 0 L 10.140625 0 L 1.453125 -39.1875 L 9.796875 -39.1875 L 15.109375 -12.59375 L 22.78125 -39.1875 L 30.40625 -39.1875 L 38.015625 -12.703125 L 43.328125 -39.1875 L 51.390625 -39.1875 L 42.71875 0 L 34.203125 0 L 26.421875 -27.375 Z M 18.640625 0 "/></g></g></g><g fill="#f2f2f2" fill-opacity="1"><g transform="translate(121.926346, 197.639855)"><g><path d="M 12.265625 0.5 C 9.128906 0.5 6.570312 -0.328125 4.59375 -1.984375 C 2.613281 -3.648438 1.625 -5.804688 1.625 -8.453125 C 1.625 -11.210938 2.6875 -13.375 4.8125 -14.9375 C 6.9375 -16.507812 9.867188 -17.296875 13.609375 -17.296875 C 14.796875 -17.296875 15.988281 -17.203125 17.1875 -17.015625 C 18.382812 -16.828125 19.5625 -16.546875 20.71875 -16.171875 L 20.71875 -18.25 C 20.71875 -19.925781 20.191406 -21.191406 19.140625 -22.046875 C 18.097656 -22.910156 16.570312 -23.34375 14.5625 -23.34375 C 13.320312 -23.34375 11.984375 -23.144531 10.546875 -22.75 C 9.109375 -22.363281 7.476562 -21.757812 5.65625 -20.9375 L 2.859375 -26.59375 C 5.128906 -27.632812 7.335938 -28.414062 9.484375 -28.9375 C 11.628906 -29.46875 13.75 -29.734375 15.84375 -29.734375 C 19.757812 -29.734375 22.804688 -28.789062 24.984375 -26.90625 C 27.171875 -25.019531 28.265625 -22.359375 28.265625 -18.921875 L 28.265625 0 L 20.71875 0 L 20.71875 -2.015625 C 19.476562 -1.160156 18.175781 -0.523438 16.8125 -0.109375 C 15.457031 0.296875 13.941406 0.5 12.265625 0.5 Z M 8.953125 -8.625 C 8.953125 -7.5 9.4375 -6.609375 10.40625 -5.953125 C 11.382812 -5.304688 12.675781 -4.984375 14.28125 -4.984375 C 15.539062 -4.984375 16.703125 -5.140625 17.765625 -5.453125 C 18.835938 -5.773438 19.820312 -6.234375 20.71875 -6.828125 L 20.71875 -11.203125 C 19.78125 -11.566406 18.796875 -11.832031 17.765625 -12 C 16.742188 -12.175781 15.675781 -12.265625 14.5625 -12.265625 C 12.800781 -12.265625 11.425781 -11.9375 10.4375 -11.28125 C 9.445312 -10.625 8.953125 -9.738281 8.953125 -8.625 Z M 8.953125 -8.625 "/></g></g></g><g fill="#f2f2f2" fill-opacity="1"><g transform="translate(151.533411, 197.639855)"><g><path d="M 3.015625 0 L 3.015625 -29.171875 L 10.6875 -29.171875 L 10.6875 -25.984375 C 11.625 -27.242188 12.753906 -28.203125 14.078125 -28.859375 C 15.398438 -29.515625 16.863281 -29.84375 18.46875 -29.84375 C 19.21875 -29.800781 19.84375 -29.734375 20.34375 -29.640625 C 20.851562 -29.546875 21.296875 -29.390625 21.671875 -29.171875 L 21.671875 -22.453125 C 21.109375 -22.710938 20.488281 -22.90625 19.8125 -23.03125 C 19.144531 -23.164062 18.457031 -23.234375 17.75 -23.234375 C 16.25 -23.234375 14.875 -22.859375 13.625 -22.109375 C 12.375 -21.367188 11.394531 -20.285156 10.6875 -18.859375 L 10.6875 0 Z M 3.015625 0 "/></g></g></g><g fill="#f2f2f2" fill-opacity="1"><g transform="translate(172.857095, 197.639855)"><g><path d="M 24.796875 0 L 24.796875 -2.40625 C 23.640625 -1.46875 22.351562 -0.765625 20.9375 -0.296875 C 19.519531 0.160156 18.046875 0.390625 16.515625 0.390625 C 14.460938 0.390625 12.53125 0 10.71875 -0.78125 C 8.90625 -1.5625 7.328125 -2.625 5.984375 -3.96875 C 4.640625 -5.3125 3.582031 -6.898438 2.8125 -8.734375 C 2.050781 -10.566406 1.671875 -12.523438 1.671875 -14.609375 C 1.671875 -16.703125 2.0625 -18.660156 2.84375 -20.484375 C 3.632812 -22.316406 4.703125 -23.90625 6.046875 -25.25 C 7.390625 -26.59375 8.984375 -27.644531 10.828125 -28.40625 C 12.679688 -29.175781 14.648438 -29.5625 16.734375 -29.5625 C 18.148438 -29.5625 19.539062 -29.363281 20.90625 -28.96875 C 22.269531 -28.582031 23.53125 -28.015625 24.6875 -27.265625 L 24.6875 -39.1875 L 32.359375 -40.875 L 32.359375 0 Z M 9.234375 -14.609375 C 9.234375 -12.253906 10.050781 -10.253906 11.6875 -8.609375 C 13.332031 -6.972656 15.351562 -6.15625 17.75 -6.15625 C 19.164062 -6.15625 20.460938 -6.394531 21.640625 -6.875 C 22.816406 -7.363281 23.832031 -8.054688 24.6875 -8.953125 L 24.6875 -20.328125 C 23.863281 -21.179688 22.84375 -21.847656 21.625 -22.328125 C 20.414062 -22.816406 19.125 -23.0625 17.75 -23.0625 C 15.320312 -23.0625 13.296875 -22.25 11.671875 -20.625 C 10.046875 -19 9.234375 -16.992188 9.234375 -14.609375 Z M 9.234375 -14.609375 "/></g></g></g><g fill="#f2f2f2" fill-opacity="1"><g transform="translate(206.773753, 197.639855)"><g><path d="M 6.828125 -32.640625 C 5.628906 -32.640625 4.601562 -33.066406 3.75 -33.921875 C 2.894531 -34.785156 2.46875 -35.8125 2.46875 -37 C 2.46875 -38.195312 2.894531 -39.222656 3.75 -40.078125 C 4.601562 -40.941406 5.628906 -41.375 6.828125 -41.375 C 8.023438 -41.375 9.050781 -40.941406 9.90625 -40.078125 C 10.769531 -39.222656 11.203125 -38.195312 11.203125 -37 C 11.203125 -35.8125 10.769531 -34.785156 9.90625 -33.921875 C 9.050781 -33.066406 8.023438 -32.640625 6.828125 -32.640625 Z M 10.6875 -29.171875 L 10.6875 0 L 3.015625 0 L 3.015625 -29.171875 Z M 10.6875 -29.171875 "/></g></g></g><g fill="#f2f2f2" fill-opacity="1"><g transform="translate(218.974539, 197.639855)"><g><path d="M 29.171875 -3.640625 C 27.378906 -2.179688 25.539062 -1.113281 23.65625 -0.4375 C 21.769531 0.226562 19.671875 0.5625 17.359375 0.5625 C 15.148438 0.5625 13.082031 0.171875 11.15625 -0.609375 C 9.238281 -1.398438 7.582031 -2.46875 6.1875 -3.8125 C 4.789062 -5.15625 3.6875 -6.75 2.875 -8.59375 C 2.070312 -10.4375 1.671875 -12.425781 1.671875 -14.5625 C 1.671875 -16.644531 2.050781 -18.609375 2.8125 -20.453125 C 3.582031 -22.304688 4.640625 -23.914062 5.984375 -25.28125 C 7.328125 -26.644531 8.921875 -27.71875 10.765625 -28.5 C 12.617188 -29.28125 14.59375 -29.671875 16.6875 -29.671875 C 18.738281 -29.671875 20.648438 -29.269531 22.421875 -28.46875 C 24.191406 -27.664062 25.71875 -26.570312 27 -25.1875 C 28.289062 -23.8125 29.300781 -22.160156 30.03125 -20.234375 C 30.757812 -18.316406 31.125 -16.238281 31.125 -14 L 31.125 -11.984375 L 9.40625 -11.984375 C 9.925781 -10.148438 10.929688 -8.671875 12.421875 -7.546875 C 13.921875 -6.429688 15.675781 -5.875 17.6875 -5.875 C 18.957031 -5.875 20.148438 -6.078125 21.265625 -6.484375 C 22.390625 -6.898438 23.34375 -7.484375 24.125 -8.234375 Z M 16.515625 -23.34375 C 14.765625 -23.34375 13.253906 -22.8125 11.984375 -21.75 C 10.710938 -20.6875 9.832031 -19.257812 9.34375 -17.46875 L 23.625 -17.46875 C 23.132812 -19.1875 22.242188 -20.59375 20.953125 -21.6875 C 19.671875 -22.789062 18.191406 -23.34375 16.515625 -23.34375 Z M 16.515625 -23.34375 "/></g></g></g><g fill="#f2f2f2" fill-opacity="1"><g transform="translate(250.316631, 197.639855)"><g><path d="M 3.015625 0 L 3.015625 -29.171875 L 10.6875 -29.171875 L 10.6875 -25.984375 C 11.625 -27.242188 12.753906 -28.203125 14.078125 -28.859375 C 15.398438 -29.515625 16.863281 -29.84375 18.46875 -29.84375 C 19.21875 -29.800781 19.84375 -29.734375 20.34375 -29.640625 C 20.851562 -29.546875 21.296875 -29.390625 21.671875 -29.171875 L 21.671875 -22.453125 C 21.109375 -22.710938 20.488281 -22.90625 19.8125 -23.03125 C 19.144531 -23.164062 18.457031 -23.234375 17.75 -23.234375 C 16.25 -23.234375 14.875 -22.859375 13.625 -22.109375 C 12.375 -21.367188 11.394531 -20.285156 10.6875 -18.859375 L 10.6875 0 Z M 3.015625 0 "/></g></g></g><g fill="#f2f2f2" fill-opacity="1"><g transform="translate(271.640303, 197.639855)"><g><path d="M 29.171875 -3.640625 C 27.378906 -2.179688 25.539062 -1.113281 23.65625 -0.4375 C 21.769531 0.226562 19.671875 0.5625 17.359375 0.5625 C 15.148438 0.5625 13.082031 0.171875 11.15625 -0.609375 C 9.238281 -1.398438 7.582031 -2.46875 6.1875 -3.8125 C 4.789062 -5.15625 3.6875 -6.75 2.875 -8.59375 C 2.070312 -10.4375 1.671875 -12.425781 1.671875 -14.5625 C 1.671875 -16.644531 2.050781 -18.609375 2.8125 -20.453125 C 3.582031 -22.304688 4.640625 -23.914062 5.984375 -25.28125 C 7.328125 -26.644531 8.921875 -27.71875 10.765625 -28.5 C 12.617188 -29.28125 14.59375 -29.671875 16.6875 -29.671875 C 18.738281 -29.671875 20.648438 -29.269531 22.421875 -28.46875 C 24.191406 -27.664062 25.71875 -26.570312 27 -25.1875 C 28.289062 -23.8125 29.300781 -22.160156 30.03125 -20.234375 C 30.757812 -18.316406 31.125 -16.238281 31.125 -14 L 31.125 -11.984375 L 9.40625 -11.984375 C 9.925781 -10.148438 10.929688 -8.671875 12.421875 -7.546875 C 13.921875 -6.429688 15.675781 -5.875 17.6875 -5.875 C 18.957031 -5.875 20.148438 -6.078125 21.265625 -6.484375 C 22.390625 -6.898438 23.34375 -7.484375 24.125 -8.234375 Z M 16.515625 -23.34375 C 14.765625 -23.34375 13.253906 -22.8125 11.984375 -21.75 C 10.710938 -20.6875 9.832031 -19.257812 9.34375 -17.46875 L 23.625 -17.46875 C 23.132812 -19.1875 22.242188 -20.59375 20.953125 -21.6875 C 19.671875 -22.789062 18.191406 -23.34375 16.515625 -23.34375 Z M 16.515625 -23.34375 "/></g></g></g><g clip-path="url(#e723a3cc6d)"><g clip-path="url(#829d30337f)"><path fill="#f2f2f2" d="M 70.484375 206.730469 L 310.425781 206.730469 L 310.425781 216.761719 L 70.484375 216.761719 Z M 70.484375 206.730469 " fill-opacity="1" fill-rule="nonzero"/></g></g></svg>