<svg xmlns="http://www.w3.org/2000/svg" xmlns:xlink="http://www.w3.org/1999/xlink" width="150" zoomAndPan="magnify" viewBox="0 0 112.5 30.000001" height="40" preserveAspectRatio="xMidYMid meet" version="1.0"><defs><g/><clipPath id="a58c9aba70"><path d="M 15.480469 23.515625 L 98.585938 23.515625 L 98.585938 26.988281 L 15.480469 26.988281 Z M 15.480469 23.515625 " clip-rule="nonzero"/></clipPath><clipPath id="c04e740d44"><path d="M 15.480469 23.515625 L 16.230469 26.988281 L 98.585938 23.703125 L 98.535156 23.515625 Z M 15.480469 23.515625 " clip-rule="nonzero"/></clipPath></defs><g fill="#010101" fill-opacity="1"><g transform="translate(15.500638, 20.36607)"><g><path d="M 6.453125 0 L 3.515625 0 L 0.5 -13.578125 L 3.390625 -13.578125 L 5.234375 -4.359375 L 7.890625 -13.578125 L 10.53125 -13.578125 L 13.171875 -4.40625 L 15.015625 -13.578125 L 17.796875 -13.578125 L 14.796875 0 L 11.84375 0 L 9.15625 -9.484375 Z M 6.453125 0 "/></g></g></g><g fill="#010101" fill-opacity="1"><g transform="translate(33.296122, 20.36607)"><g><path d="M 4.25 0.171875 C 3.164062 0.171875 2.28125 -0.113281 1.59375 -0.6875 C 0.90625 -1.257812 0.5625 -2.003906 0.5625 -2.921875 C 0.5625 -3.878906 0.925781 -4.628906 1.65625 -5.171875 C 2.394531 -5.710938 3.414062 -5.984375 4.71875 -5.984375 C 5.125 -5.984375 5.535156 -5.953125 5.953125 -5.890625 C 6.367188 -5.828125 6.773438 -5.734375 7.171875 -5.609375 L 7.171875 -6.328125 C 7.171875 -6.898438 6.988281 -7.332031 6.625 -7.625 C 6.269531 -7.925781 5.742188 -8.078125 5.046875 -8.078125 C 4.617188 -8.078125 4.15625 -8.007812 3.65625 -7.875 C 3.15625 -7.738281 2.585938 -7.53125 1.953125 -7.25 L 0.984375 -9.203125 C 1.773438 -9.566406 2.539062 -9.835938 3.28125 -10.015625 C 4.03125 -10.203125 4.765625 -10.296875 5.484375 -10.296875 C 6.847656 -10.296875 7.90625 -9.96875 8.65625 -9.3125 C 9.414062 -8.664062 9.796875 -7.742188 9.796875 -6.546875 L 9.796875 0 L 7.171875 0 L 7.171875 -0.703125 C 6.742188 -0.398438 6.296875 -0.175781 5.828125 -0.03125 C 5.359375 0.101562 4.832031 0.171875 4.25 0.171875 Z M 3.109375 -2.984375 C 3.109375 -2.597656 3.273438 -2.289062 3.609375 -2.0625 C 3.941406 -1.832031 4.382812 -1.71875 4.9375 -1.71875 C 5.382812 -1.71875 5.789062 -1.773438 6.15625 -1.890625 C 6.519531 -2.003906 6.859375 -2.160156 7.171875 -2.359375 L 7.171875 -3.875 C 6.847656 -4.007812 6.507812 -4.101562 6.15625 -4.15625 C 5.800781 -4.21875 5.429688 -4.25 5.046875 -4.25 C 4.429688 -4.25 3.953125 -4.132812 3.609375 -3.90625 C 3.273438 -3.675781 3.109375 -3.367188 3.109375 -2.984375 Z M 3.109375 -2.984375 "/></g></g></g><g fill="#010101" fill-opacity="1"><g transform="translate(43.550758, 20.36607)"><g><path d="M 1.046875 0 L 1.046875 -10.109375 L 3.703125 -10.109375 L 3.703125 -9 C 4.023438 -9.4375 4.414062 -9.765625 4.875 -9.984375 C 5.332031 -10.210938 5.84375 -10.328125 6.40625 -10.328125 C 6.65625 -10.316406 6.867188 -10.296875 7.046875 -10.265625 C 7.222656 -10.234375 7.375 -10.179688 7.5 -10.109375 L 7.5 -7.78125 C 7.3125 -7.863281 7.097656 -7.925781 6.859375 -7.96875 C 6.628906 -8.019531 6.390625 -8.046875 6.140625 -8.046875 C 5.628906 -8.046875 5.15625 -7.914062 4.71875 -7.65625 C 4.289062 -7.394531 3.953125 -7.019531 3.703125 -6.53125 L 3.703125 0 Z M 1.046875 0 "/></g></g></g><g fill="#010101" fill-opacity="1"><g transform="translate(50.936381, 20.36607)"><g><path d="M 8.59375 0 L 8.59375 -0.828125 C 8.1875 -0.503906 7.738281 -0.257812 7.25 -0.09375 C 6.757812 0.0625 6.25 0.140625 5.71875 0.140625 C 5.007812 0.140625 4.335938 0.00390625 3.703125 -0.265625 C 3.078125 -0.535156 2.53125 -0.90625 2.0625 -1.375 C 1.601562 -1.84375 1.238281 -2.390625 0.96875 -3.015625 C 0.707031 -3.648438 0.578125 -4.332031 0.578125 -5.0625 C 0.578125 -5.78125 0.710938 -6.457031 0.984375 -7.09375 C 1.253906 -7.726562 1.625 -8.273438 2.09375 -8.734375 C 2.5625 -9.203125 3.113281 -9.566406 3.75 -9.828125 C 4.394531 -10.097656 5.078125 -10.234375 5.796875 -10.234375 C 6.285156 -10.234375 6.765625 -10.164062 7.234375 -10.03125 C 7.710938 -9.894531 8.148438 -9.695312 8.546875 -9.4375 L 8.546875 -13.578125 L 11.203125 -14.15625 L 11.203125 0 Z M 3.203125 -5.0625 C 3.203125 -4.25 3.484375 -3.554688 4.046875 -2.984375 C 4.617188 -2.421875 5.316406 -2.140625 6.140625 -2.140625 C 6.640625 -2.140625 7.09375 -2.222656 7.5 -2.390625 C 7.90625 -2.554688 8.253906 -2.796875 8.546875 -3.109375 L 8.546875 -7.03125 C 8.265625 -7.332031 7.910156 -7.566406 7.484375 -7.734375 C 7.066406 -7.898438 6.617188 -7.984375 6.140625 -7.984375 C 5.304688 -7.984375 4.609375 -7.703125 4.046875 -7.140625 C 3.484375 -6.578125 3.203125 -5.882812 3.203125 -5.0625 Z M 3.203125 -5.0625 "/></g></g></g><g fill="#010101" fill-opacity="1"><g transform="translate(62.683679, 20.36607)"><g><path d="M 2.359375 -11.3125 C 1.953125 -11.3125 1.597656 -11.457031 1.296875 -11.75 C 1.003906 -12.050781 0.859375 -12.40625 0.859375 -12.8125 C 0.859375 -13.226562 1.003906 -13.582031 1.296875 -13.875 C 1.597656 -14.175781 1.953125 -14.328125 2.359375 -14.328125 C 2.773438 -14.328125 3.128906 -14.175781 3.421875 -13.875 C 3.722656 -13.582031 3.875 -13.226562 3.875 -12.8125 C 3.875 -12.40625 3.722656 -12.050781 3.421875 -11.75 C 3.128906 -11.457031 2.773438 -11.3125 2.359375 -11.3125 Z M 3.703125 -10.109375 L 3.703125 0 L 1.046875 0 L 1.046875 -10.109375 Z M 3.703125 -10.109375 "/></g></g></g><g fill="#010101" fill-opacity="1"><g transform="translate(66.909516, 20.36607)"><g><path d="M 10.109375 -1.265625 C 9.484375 -0.753906 8.84375 -0.382812 8.1875 -0.15625 C 7.539062 0.0703125 6.816406 0.1875 6.015625 0.1875 C 5.242188 0.1875 4.523438 0.0507812 3.859375 -0.21875 C 3.203125 -0.488281 2.628906 -0.851562 2.140625 -1.3125 C 1.660156 -1.78125 1.28125 -2.332031 1 -2.96875 C 0.71875 -3.613281 0.578125 -4.304688 0.578125 -5.046875 C 0.578125 -5.765625 0.707031 -6.441406 0.96875 -7.078125 C 1.238281 -7.722656 1.601562 -8.28125 2.0625 -8.75 C 2.53125 -9.226562 3.082031 -9.601562 3.71875 -9.875 C 4.363281 -10.144531 5.050781 -10.28125 5.78125 -10.28125 C 6.488281 -10.28125 7.148438 -10.140625 7.765625 -9.859375 C 8.378906 -9.578125 8.910156 -9.195312 9.359375 -8.71875 C 9.804688 -8.25 10.15625 -7.679688 10.40625 -7.015625 C 10.65625 -6.347656 10.78125 -5.625 10.78125 -4.84375 L 10.78125 -4.15625 L 3.25 -4.15625 C 3.4375 -3.519531 3.785156 -3.003906 4.296875 -2.609375 C 4.816406 -2.222656 5.425781 -2.03125 6.125 -2.03125 C 6.5625 -2.03125 6.972656 -2.101562 7.359375 -2.25 C 7.753906 -2.394531 8.085938 -2.59375 8.359375 -2.84375 Z M 5.71875 -8.078125 C 5.113281 -8.078125 4.585938 -7.894531 4.140625 -7.53125 C 3.703125 -7.164062 3.398438 -6.671875 3.234375 -6.046875 L 8.1875 -6.046875 C 8.019531 -6.640625 7.710938 -7.125 7.265625 -7.5 C 6.816406 -7.882812 6.300781 -8.078125 5.71875 -8.078125 Z M 5.71875 -8.078125 "/></g></g></g><g fill="#010101" fill-opacity="1"><g transform="translate(77.765092, 20.36607)"><g><path d="M 1.046875 0 L 1.046875 -10.109375 L 3.703125 -10.109375 L 3.703125 -9 C 4.023438 -9.4375 4.414062 -9.765625 4.875 -9.984375 C 5.332031 -10.210938 5.84375 -10.328125 6.40625 -10.328125 C 6.65625 -10.316406 6.867188 -10.296875 7.046875 -10.265625 C 7.222656 -10.234375 7.375 -10.179688 7.5 -10.109375 L 7.5 -7.78125 C 7.3125 -7.863281 7.097656 -7.925781 6.859375 -7.96875 C 6.628906 -8.019531 6.390625 -8.046875 6.140625 -8.046875 C 5.628906 -8.046875 5.15625 -7.914062 4.71875 -7.65625 C 4.289062 -7.394531 3.953125 -7.019531 3.703125 -6.53125 L 3.703125 0 Z M 1.046875 0 "/></g></g></g><g fill="#010101" fill-opacity="1"><g transform="translate(85.150711, 20.36607)"><g><path d="M 10.109375 -1.265625 C 9.484375 -0.753906 8.84375 -0.382812 8.1875 -0.15625 C 7.539062 0.0703125 6.816406 0.1875 6.015625 0.1875 C 5.242188 0.1875 4.523438 0.0507812 3.859375 -0.21875 C 3.203125 -0.488281 2.628906 -0.851562 2.140625 -1.3125 C 1.660156 -1.78125 1.28125 -2.332031 1 -2.96875 C 0.71875 -3.613281 0.578125 -4.304688 0.578125 -5.046875 C 0.578125 -5.765625 0.707031 -6.441406 0.96875 -7.078125 C 1.238281 -7.722656 1.601562 -8.28125 2.0625 -8.75 C 2.53125 -9.226562 3.082031 -9.601562 3.71875 -9.875 C 4.363281 -10.144531 5.050781 -10.28125 5.78125 -10.28125 C 6.488281 -10.28125 7.148438 -10.140625 7.765625 -9.859375 C 8.378906 -9.578125 8.910156 -9.195312 9.359375 -8.71875 C 9.804688 -8.25 10.15625 -7.679688 10.40625 -7.015625 C 10.65625 -6.347656 10.78125 -5.625 10.78125 -4.84375 L 10.78125 -4.15625 L 3.25 -4.15625 C 3.4375 -3.519531 3.785156 -3.003906 4.296875 -2.609375 C 4.816406 -2.222656 5.425781 -2.03125 6.125 -2.03125 C 6.5625 -2.03125 6.972656 -2.101562 7.359375 -2.25 C 7.753906 -2.394531 8.085938 -2.59375 8.359375 -2.84375 Z M 5.71875 -8.078125 C 5.113281 -8.078125 4.585938 -7.894531 4.140625 -7.53125 C 3.703125 -7.164062 3.398438 -6.671875 3.234375 -6.046875 L 8.1875 -6.046875 C 8.019531 -6.640625 7.710938 -7.125 7.265625 -7.5 C 6.816406 -7.882812 6.300781 -8.078125 5.71875 -8.078125 Z M 5.71875 -8.078125 "/></g></g></g><g clip-path="url(#a58c9aba70)"><g clip-path="url(#c04e740d44)"><path fill="#010101" d="M 15.480469 23.515625 L 98.585938 23.515625 L 98.585938 26.988281 L 15.480469 26.988281 Z M 15.480469 23.515625 " fill-opacity="1" fill-rule="nonzero"/></g></g></svg>